<?xml version="1.0" encoding="iso-8859-1"?>
<!-- Generator: Adobe Illustrator 19.0.0, SVG Export Plug-In . SVG Version: 6.00 Build 0)  -->
<svg version="1.1" id="Layer_1" xmlns="http://www.w3.org/2000/svg" xmlns:xlink="http://www.w3.org/1999/xlink" x="0px" y="0px"
	 viewBox="0 0 512 512" style="enable-background:new 0 0 512 512;" xml:space="preserve">
<g>
	<g>
		<path d="M469.328,352V117.336C469.328,105.555,459.781,96,448,96H64c-11.781,0-21.328,9.555-21.328,21.336V352H0v42.656
			C0,406.438,9.547,416,21.328,416h469.344c11.781,0,21.328-9.562,21.328-21.344V352H469.328z M64,117.336h384V320H64V117.336z
			 M64,341.344h384V352H64V341.344z M490.672,394.656H21.328v-21.312h176c0,5.875,4.781,10.656,10.672,10.656h96
			c5.891,0,10.672-4.781,10.672-10.656h176V394.656z"/>
	</g>
</g>
<g>
</g>
<g>
</g>
<g>
</g>
<g>
</g>
<g>
</g>
<g>
</g>
<g>
</g>
<g>
</g>
<g>
</g>
<g>
</g>
<g>
</g>
<g>
</g>
<g>
</g>
<g>
</g>
<g>
</g>
</svg>
