<svg id="Capa_1" enable-background="new 0 0 512 512" height="512" viewBox="0 0 512 512" width="512" xmlns="http://www.w3.org/2000/svg"><g><path d="m399 210h18c52.383 0 95-42.617 95-95v-40c0-41.355-33.645-75-75-75h-332c-57.897 0-105 47.103-105 105v211.236c0 57.897 47.103 105 105 105h69v15c0 41.777 33.987 75.764 75.764 75.764h167.236c52.383 0 95-42.617 95-95v-67c0-52.383-42.617-95-95-95h-18c-8.271 0-15-6.729-15-15v-15c0-8.271 6.729-15 15-15zm-339 80.236h-30v-30h30zm339-5.236h18c35.841 0 65 29.159 65 65v67c0 35.841-29.159 65-65 65h-167.236c-25.235 0-45.764-20.529-45.764-45.764v-20c0-13.785-11.215-25-25-25h-74c-40.013 0-72.805-31.497-74.891-71h30.079c2.032 22.945 21.348 41 44.813 41h83.236c25.234 0 45.763 20.53 45.763 45.764v20c0 13.785 11.215 25 25 25h148c24.813 0 45-20.187 45-45v-47c0-24.813-20.187-45-45-45h-11.292c-39.54 0-71.708-32.168-71.708-71.708v-21.584c0-39.54 32.168-71.708 71.708-71.708h21.292c19.299 0 35-15.701 35-35v-20c0-19.299-15.701-35-35-35h-312c-24.813 0-45 20.187-45 45v125.236h-30v-125.236c0-41.355 33.645-75 75-75h332c24.813 0 45 20.187 45 45v40c0 35.841-29.159 65-65 65h-18c-24.813 0-45 20.187-45 45v15c0 24.813 20.187 45 45 45zm-3.292 60h11.292c8.271 0 15 6.729 15 15v47c0 8.271-6.729 15-15 15h-143v-15c0-41.776-33.987-75.764-75.764-75.764h-83.236c-8.271 0-15-6.729-15-15v-211.236c0-8.271 6.729-15 15-15h312c2.757 0 5 2.243 5 5v20c0 2.757-2.243 5-5 5h-21.292c-56.082 0-101.708 45.626-101.708 101.708v21.584c0 56.082 45.626 101.708 101.708 101.708z"/></g></svg>